<svg width="8.5287mm" height="8.5287mm" version="1.1" viewBox="0 0 8.5287 8.5287" xmlns="http://www.w3.org/2000/svg"><g transform="translate(-104.04 -19.711)"><g transform="translate(13.335 -.25768)" stroke-width=".041341"><circle class="st1" cx="95.374" cy="23.032" r=".50023" fill="#fff"/><path class="st1" d="m98.388 23.731c0-1.9554-1.1451-2.8401-2.6624-2.8401-0.678 0-1.2816 0.1819-1.7529 0.51676-0.1571 0.11162-0.37207 0.0041-0.37207-0.18604 0-0.12816-0.10335-0.23564-0.23564-0.23564h-1.3064c-0.12816 0-0.23564 0.10335-0.23564 0.23564v5.9531c0 0.12816 0.10335 0.23564 0.23564 0.23564h1.3932c0.12816 0 0.23151-0.10335 0.23151-0.23151v-0.34726c0-2.5962-1.3725-4.5393-0.01654-4.7956 1.2402-0.23564 2.65-0.12402 2.6665 0.83096 0 0.08268 0.0124 0.33073 0.35553 0.46302 0.20671 0.08268 0.5209 0.10749 0.93431 0.09922 0 0 0.3762-0.02894 0.3762 0.3514 0 0.47542-0.84336 0.44235-0.84336 0.44235-0.27699 0.0124-0.93431-0.06201-1.3105 0.04961-0.19844 0.06201-0.37207 0.17363-0.47542 0.3762-0.17363 0.34313-0.25632 1.0955-0.26872 1.881v0.64079c0 0.12816 0.10335 0.23564 0.23564 0.23564h2.8112c0.12816 0 0.23564-0.10335 0.23564-0.23564v-3.4396z" fill="#fff"/><path class="st2" d="m99.082 21.197c-0.1819-0.50436-0.57878-0.90124-1.0831-1.0831-0.45889-0.14469-0.88884-0.14469-1.7446-0.14469h-2.5797c-0.85576 0-1.2857 0-1.7446 0.14469-0.50436 0.1819-0.90124 0.57878-1.0831 1.0831-0.14469 0.46302-0.14469 0.88884-0.14469 1.7446v2.5838c0 0.85576 0 1.2857 0.14469 1.7446 0.1819 0.50436 0.57878 0.90124 1.0831 1.0831 0.46302 0.14469 0.88884 0.14469 1.7446 0.14469h2.5838c0.85576 0 1.2857 0 1.7446-0.14469 0.50436-0.1819 0.90124-0.57878 1.0831-1.0831 0.14469-0.45889 0.14469-0.88884 0.14469-1.7446v-2.5838c0-0.85576 0-1.2857-0.14883-1.7446zm-0.93018 6.2094h-2.8112c-0.12816 0-0.23564-0.10335-0.23564-0.23564v-0.64079c0.0124-0.78548 0.09509-1.5379 0.26872-1.881 0.10335-0.20671 0.27698-0.31833 0.47542-0.3762 0.37207-0.11162 1.0294-0.03721 1.3105-0.04961 0 0 0.84336 0.03307 0.84336-0.44235 0-0.38447-0.3762-0.3514-0.3762-0.3514-0.41341 0.0124-0.73174-0.01654-0.93431-0.09922-0.34313-0.13643-0.35553-0.38034-0.35553-0.46302-0.01654-0.95498-1.4263-1.0707-2.6665-0.83096-1.356 0.25632 0.01654 2.2035 0.01654 4.7956v0.34726c-0.0041 0.12816-0.10335 0.23151-0.23151 0.23151h-1.3973c-0.12816 0-0.23564-0.10335-0.23564-0.23564v-5.9531c0-0.12816 0.10335-0.23564 0.23564-0.23564h1.3105c0.12816 0 0.23564 0.10335 0.23564 0.23564 0 0.1943 0.21497 0.29766 0.37207 0.18604 0.47129-0.339 1.0749-0.51676 1.7529-0.51676 1.5172 0 2.6624 0.8847 2.6624 2.8401v3.4396c-0.0041 0.13229-0.10749 0.23564-0.23978 0.23564zm-3.2825-4.3739c0-0.27699 0.22324-0.50023 0.50023-0.50023 0.27699 0 0.50436 0.22324 0.50436 0.50023s-0.22324 0.50023-0.50023 0.50023c-0.27699 0-0.50436-0.21911-0.50436-0.50023z" fill="#662482" fill-opacity=".45"/></g></g></svg>
